#!OML:ASF I:\Actors\actors\Patient Classification 1\Patient 1\Session 1\Subject1.ASF
:FULLY-SPECIFIED
:DEGREES
189
root 0.336408 17.5099 9.16963 9.03274 4.86261 -9.89232
lowerback 3.8265 1.40404 7.77552
upperback -6.90122 2.56425 -0.0129706
thorax -9.1784 0.707586 -4.66278
lowerneck -17.2714 2.13033 3.84914
upperneck 25.5314 0.0300421 6.6606
head 11.1918 1.25258 1.79241
rclavicle -2.18663e-015 1.59028e-014
rhumerus -55.7433 54.722 -115.874
rradius 103.441
rwrist -47.0631
rhand 6.26005 -71.7722
rfingers 7.12502
rthumb 31.5711 -260.937
lclavicle -2.18663e-015 1.59028e-014
lhumerus -54.0122 -52.5829 100.531
lradius 93.9319
lwrist 90.2662
lhand -36.1634 18.2867
lfingers 7.12502
lthumb -9.26752 48.063
rfemur -4.33146 23.6637 28.0374
rtibia 2.33977
rfoot -13.3401 -27.9901
rtoes 7.53278
lfemur -1.26185 -37.2509 -4.75962
ltibia -3.08498
lfoot -9.50003 41.2206
ltoes -6.3961
190
root 0.339907 17.513 9.14693 9.16711 4.86289 -10.0911
lowerback 4.06177 1.58476 7.64598
upperback -6.83016 2.81388 -0.0283383
thorax -9.20691 0.838714 -4.64138
lowerneck -17.5173 2.01738 3.62215
upperneck 25.2147 -0.15912 7.0202
head 11.1254 1.18434 1.93044
rclavicle -2.56432e-014 -2.06736e-014
rhumerus -52.6003 56.3984 -115.613
rradius 101.811
rwrist -46.297
rhand 12.55 -72.7054
rfingers 7.12502
rthumb 37.5408 -261.372
lclavicle -2.56432e-014 -2.06736e-014
lhumerus -50.2655 -53.3541 97.3369
lradius 92.0996
lwrist 90.5024
lhand -35.9289 18.4356
lfingers 7.12502
lthumb -9.0412 48.2218
rfemur -4.61643 23.7426 28.1239
rtibia 2.34668
rfoot -13.2421 -28.0158
rtoes 7.42119
lfemur -1.58284 -37.361 -4.32251
ltibia -3.0593
lfoot -9.67949 41.3625
ltoes -5.95648
191
root 0.348705 17.5127 9.12556 9.32974 4.89752 -10.2169
lowerback 4.22566 1.75731 7.50522
upperback -6.76859 3.04331 -0.06334
thorax -9.20663 0.961016 -4.63055
lowerneck -17.7565 1.87328 3.35995
upperneck 24.9549 -0.358504 7.2926
head 11.0795 1.09885 2.04199
rclavicle 1.95803e-014 1.66979e-014
rhumerus -49.145 57.6539 -115.103
rradius 100.047
rwrist -46.3547
rhand 13.1374 -72.986
rfingers 7.12502
rthumb 38.0956 -261.241
lclavicle 1.95803e-014 1.66979e-014
lhumerus -46.1753 -53.9973 93.9941
lradius 89.9718
lwrist 90.1008
lhand -35.6754 18.2529
lfingers 7.12502
lthumb -8.79657 48.0496
rfemur -4.91218 23.7606 28.0843
rtibia 2.32262
rfoot -13.1792 -28.0011
rtoes 7.71099
lfemur -1.90067 -37.8161 -4.02393
ltibia -3.00757
lfoot -9.90786 41.7633
ltoes -5.32866
192
root 0.351028 17.5206 9.11631 9.13503 5.02525 -10.3153
lowerback 4.58643 1.87764 7.21852
upperback -6.60393 3.20234 -0.0740254
thorax -9.22554 1.06119 -4.51209
lowerneck -17.9705 1.73645 3.06644
upperneck 24.7989 -0.578692 7.70104
head 11.0711 1.02146 2.20823
rclavicle 1.03865e-014 -2.14687e-014
rhumerus -45.2032 57.9157 -114.278
rradius 98.0247
rwrist -46.0714
rhand 14.2136 -73.9325
rfingers 7.12502
rthumb 39.1109 -260.579
lclavicle 1.03865e-014 -2.14687e-014
lhumerus -41.8609 -54.4471 90.4945
lradius 87.6386
lwrist 89.2539
lhand -35.2626 18.5033
lfingers 7.12502
lthumb -8.39823 48.3163
rfemur -4.5285 24.1801 28.3122
rtibia 2.08889
rfoot -13.349 -28.4652
rtoes 8.50268
lfemur -1.58185 -38.283 -4.08525
ltibia -3.16517
lfoot -9.68066 42.0383
ltoes -5.61446
193
root 0.35919 17.5234 9.10411 9.19282 5.02501 -10.3937
lowerback 4.74647 2.05655 6.98295
upperback -6.52746 3.42543 -0.149097
thorax -9.21106 1.186 -4.49149
lowerneck -18.1567 1.6109 2.87323
upperneck 24.6492 -0.818886 8.14042
head 11.0638 0.94854 2.36589
rclavicle 4.29872e-015 1.27222e-014
rhumerus -41.445 60.7147 -113.071
rradius 96.1407
rwrist -47.7842
rhand 14.1066 -73.3032
rfingers 7.12502
rthumb 39.0101 -261.18
lclavicle 4.29872e-015 1.27222e-014
lhumerus -37.3591 -54.6906 86.799
lradius 85.1598
lwrist 88.6025
lhand -34.5989 19.3539
lfingers 7.12502
lthumb -7.75765 49.1916
rfemur -4.55833 24.4017 28.3349
rtibia 1.98201
rfoot -13.3902 -28.6195
rtoes 8.78319
lfemur -1.59899 -38.6316 -3.99078
ltibia -3.28063
lfoot -9.52454 42.3824
ltoes -5.91601
194
root 0.36957 17.5249 9.09188 9.37601 4.91831 -10.4458
lowerback 4.80779 2.28557 6.71664
upperback -6.47003 3.70289 -0.253571
thorax -9.15308 1.33995 -4.4866
lowerneck -18.3819 1.46895 2.78024
upperneck 24.4728 -1.07785 8.45332
head 11.0559 0.860605 2.45715
rclavicle 6.20891e-015 -7.15625e-015
rhumerus -37.1377 61.9071 -111.46
rradius 93.9839
rwrist -48.2525
rhand 14.0335 -73.2937
rfingers 7.12502
rthumb 38.9411 -261.169
lclavicle 6.20891e-015 -7.15625e-015
lhumerus -32.6261 -54.7167 82.9997
lradius 82.5383
lwrist 88.3807
lhand -33.6587 20.2644
lfingers 7.12502
lthumb -6.85009 50.1336
rfemur -4.80073 24.5335 28.2348
rtibia 1.93832
rfoot -13.2481 -28.6294
rtoes 8.53498
lfemur -1.7736 -38.908 -3.83752
ltibia -3.36634
lfoot -9.5471 42.7808
ltoes -5.7565
195
root 0.380241 17.5287 9.08057 9.53697 4.82307 -10.5238
lowerback 4.88398 2.52302 6.47034
upperback -6.38396 3.99355 -0.353776
thorax -9.0717 1.50066 -4.48939
lowerneck -18.6094 1.30227 2.5829
upperneck 24.1855 -1.3408 8.80877
head 11.0082 0.762435 2.57718
rclavicle 3.88686e-014 -5.56597e-015
rhumerus -32.7959 61.5548 -110.135
rradius 91.5776
rwrist -48.0513
rhand 13.078 -74.0151
rfingers 7.12502
rthumb 38.0395 -260.196
lclavicle 3.88686e-014 -5.56597e-015
lhumerus -27.7151 -54.6044 79.2427
lradius 79.7877
lwrist 88.0603
lhand -32.7051 20.8143
lfingers 7.12502
lthumb -5.92947 50.7114
rfemur -5.01557 24.7001 28.171
rtibia 1.89122
rfoot -13.1696 -28.6694
rtoes 8.59435
lfemur -1.9796 -39.0168 -3.63281
ltibia -3.4227
lfoot -9.52509 43.011
ltoes -5.52662
196
root 0.394026 17.5334 9.07026 9.66793 4.76686 -10.6146
lowerback 4.97138 2.72052 6.30937
upperback -6.27429 4.2371 -0.463846
thorax -8.97285 1.63316 -4.54468
lowerneck -18.895 1.15319 2.27149
upperneck 23.8672 -1.57542 9.28873
head 10.9627 0.682247 2.76604
rclavicle 8.89561e-015 -1.90833e-014
rhumerus -28.4942 62.5376 -108.424
rradius 89.2089
rwrist -49.5904
rhand 10.3039 -74.0529
rfingers 7.12502
rthumb 35.4145 -259.489
lclavicle 8.89561e-015 -1.90833e-014
lhumerus -22.9038 -54.3173 75.6472
lradius 76.9184
lwrist 86.7757
lhand -31.9007 21.1267
lfingers 7.12502
lthumb -5.15282 51.044
rfemur -5.20446 24.835 28.1171
rtibia 1.84526
rfoot -13.1553 -28.7085
rtoes 8.84683
lfemur -2.16977 -39.1275 -3.4469
ltibia -3.44552
lfoot -9.55072 43.1882
ltoes -5.1992
197
root 0.410591 17.5368 9.06184 9.74882 4.70426 -10.6838
lowerback 5.06015 2.89441 6.16377
upperback -6.10803 4.44893 -0.557725
thorax -8.81721 1.75324 -4.58513
lowerneck -19.3043 1.01744 1.92815
upperneck 23.6128 -1.781 9.73206
head 10.9652 0.613105 2.9551
rclavicle -2.47487e-014 7.95139e-015
rhumerus -23.7974 63.3182 -106.292
rradius 86.5895
rwrist -50.5175
rhand 9.05603 -74.2014
rfingers 7.12502
rthumb 34.2305 -259.066
lclavicle -2.47487e-014 7.95139e-015
lhumerus -18.2359 -53.7517 72.3142
lradius 73.8536
lwrist 84.7015
lhand -31.1597 21.6263
lfingers 7.12502
lthumb -4.43739 51.5598
rfemur -5.34724 24.9032 28.0638
rtibia 1.82948
rfoot -13.0165 -28.7429
rtoes 8.50673
lfemur -2.26919 -39.3444 -3.37156
ltibia -3.42952
lfoot -9.82528 43.44
ltoes -4.47197
198
root 0.429221 17.5404 9.05418 9.80029 4.70939 -10.7762
lowerback 5.13278 3.0689 6.08673
upperback -5.90342 4.66493 -0.655143
thorax -8.60548 1.87401 -4.66438
lowerneck -19.6948 0.855797 1.59123
upperneck 23.3036 -2.01711 10.1832
head 10.9477 0.529872 3.13912
rclavicle -1.0138e-014 -3.18055e-014
rhumerus -18.3492 64.6396 -102.979
rradius 84.0809
rwrist -51.5844
rhand 8.80784 -73.8219
rfingers 7.12502
rthumb 33.9948 -259.393
lclavicle -1.0138e-014 -3.18055e-014
lhumerus -13.5569 -52.9673 69.2239
lradius 70.5675
lwrist 82.9783
lhand -30.4131 22.4281
lfingers 7.12502
lthumb -3.71638 52.3755
rfemur -5.45319 24.9649 28.0615
rtibia 1.83919
rfoot -12.9332 -28.8252
rtoes 8.29308
lfemur -2.38709 -39.5351 -3.26856
ltibia -3.38005
lfoot -9.9901 43.6208
ltoes -4.04246
